<?xml version="1.0" standalone="no"?>
<!DOCTYPE svg PUBLIC "-//W3C//DTD SVG 20010904//EN"
 "http://www.w3.org/TR/2001/REC-SVG-20010904/DTD/svg10.dtd">
<svg version="1.0" xmlns="http://www.w3.org/2000/svg"
 width="512.000000pt" height="512.000000pt" viewBox="0 0 512.000000 512.000000"
 preserveAspectRatio="xMidYMid meet">
<metadata>
Created by potrace 1.14, written by Peter Selinger 2001-2017
</metadata>
<g transform="translate(0.000000,512.000000) scale(0.100000,-0.100000)"
fill="#000000" stroke="none">
<path d="M1059 5118 c-1 -2 -2 -1154 -3 -2561 l-1 -2558 820 2 c730 1 832 3
926 19 200 33 405 112 579 225 41 26 77 51 80 54 3 3 21 18 40 32 19 15 65 55
101 90 339 329 499 767 455 1247 -4 40 -9 78 -11 85 -2 6 -6 28 -9 47 -13 89
-99 337 -127 365 -5 5 -9 15 -9 21 0 29 -147 245 -224 328 -20 21 -36 42 -36
46 0 4 14 23 32 41 69 74 170 219 223 322 51 99 114 266 130 342 68 333 44
637 -74 921 -120 287 -328 536 -583 698 -130 82 -359 179 -473 199 -190 35
-194 35 -1017 36 -450 1 -819 0 -819 -1z m1688 -927 c170 -62 311 -195 373
-352 117 -294 -11 -625 -295 -765 -119 -58 -173 -65 -542 -62 l-328 3 0 603 0
603 365 -3 c349 -4 368 -5 427 -27z m-62 -2096 c358 -75 569 -458 440 -800
-65 -174 -211 -311 -390 -368 -67 -21 -87 -22 -425 -22 l-355 0 -1 595 c0 327
1 598 3 603 3 4 151 7 331 7 249 0 344 -4 397 -15z"/>
</g>
</svg>
