<svg width="48" height="48" viewBox="0 0 48 48" fill="none" xmlns="http://www.w3.org/2000/svg">
<path d="M25.5623 5.75536C26.4758 5.21578 27.0968 4.23175 27.0968 3.09676C27.0968 1.38884 25.7079 0 24 0C22.2921 0 20.9033 1.38884 20.9033 3.09676C20.9033 4.23175 21.5241 5.21578 22.4378 5.75536C21.0806 6.3577 20.1292 7.71251 20.1292 9.29029V10.0646C20.1292 10.492 20.4752 10.8388 20.9034 10.8388H23.2261V16.2583H24.7741V10.8387H27.0968C27.5249 10.8387 27.871 10.4918 27.871 10.0644V9.29029C27.8709 7.71251 26.9194 6.3577 25.5623 5.75536ZM24 1.54838C24.8539 1.54838 25.5484 2.24288 25.5484 3.09676C25.5484 3.95064 24.8539 4.64515 24 4.64515C23.1461 4.64515 22.4516 3.95064 22.4516 3.09676C22.4516 2.24288 23.146 1.54838 24 1.54838ZM21.6774 9.29029C21.6774 8.0098 22.7194 6.96764 24 6.96764C25.2807 6.96764 26.3227 8.00963 26.3227 9.29029H21.6774Z" fill="white"/>
<path d="M1.54828 16.2578H7.74181C8.1699 16.2578 8.51608 15.9109 8.51608 15.4835V15.3813L16.6025 20.7728L17.461 19.4845L8.25512 13.3475C7.88814 12.3782 7.14954 11.5931 6.20664 11.1743C7.12097 10.6347 7.74181 9.65069 7.74181 8.51571C7.74181 6.80778 6.35297 5.41895 4.64504 5.41895C2.93711 5.41895 1.54828 6.80778 1.54828 8.51571C1.54828 9.65069 2.16912 10.6347 3.08279 11.1743C1.72566 11.7766 0.77417 13.1315 0.77417 14.7092V15.4835C0.774005 15.9109 1.12018 16.2578 1.54828 16.2578ZM4.64504 6.96749C5.49892 6.96749 6.19342 7.66199 6.19342 8.51587C6.19342 9.36976 5.49892 10.0643 4.64504 10.0643C3.79116 10.0643 3.09666 9.36976 3.09666 8.51587C3.09666 7.66199 3.791 6.96749 4.64504 6.96749ZM4.64504 12.3867C5.92553 12.3867 6.9677 13.4287 6.9677 14.7094H2.32239C2.32239 13.4287 3.36455 12.3867 4.64504 12.3867Z" fill="white"/>
<path d="M44.917 11.1743C45.8305 10.6347 46.4515 9.65069 46.4515 8.51571C46.4515 6.80778 45.0627 5.41895 43.3547 5.41895C41.6468 5.41895 40.258 6.80778 40.258 8.51571C40.258 9.65069 40.8788 10.6347 41.7925 11.1743C40.8496 11.5931 40.111 12.3782 39.744 13.3475L30.5381 19.4845L31.3966 20.7728L39.4839 15.3813V15.4835C39.4839 15.9109 39.8299 16.2578 40.2581 16.2578H46.4517C46.8798 16.2578 47.2259 15.9109 47.2259 15.4835V14.7092C47.2256 13.1315 46.2741 11.7766 44.917 11.1743ZM43.3546 6.96749C44.2085 6.96749 44.903 7.66199 44.903 8.51587C44.903 9.36976 44.2085 10.0643 43.3546 10.0643C42.5007 10.0643 41.8062 9.36976 41.8062 8.51587C41.8062 7.66199 42.5007 6.96749 43.3546 6.96749ZM41.0321 14.7094C41.0321 13.4289 42.0741 12.3867 43.3547 12.3867C44.6352 12.3867 45.6774 13.4287 45.6774 14.7094H41.0321Z" fill="white"/>
<path d="M44.9169 32.852C45.8304 32.3133 46.4514 31.3293 46.4514 30.1934C46.4514 28.4855 45.0626 27.0967 43.3546 27.0967C41.6467 27.0967 40.2579 28.4855 40.2579 30.1934C40.2579 31.3293 40.8787 32.3131 41.7924 32.852C41.3643 33.0425 40.9757 33.3049 40.6458 33.6293L31.4089 27.2344L30.5271 28.508L39.7787 34.9129C39.5906 35.3674 39.4838 35.8644 39.4838 36.387V37.1612C39.4838 37.5893 39.8298 37.9355 40.258 37.9355H46.4516C46.8796 37.9355 47.2258 37.5895 47.2258 37.1612V36.387C47.2255 34.8092 46.274 33.4544 44.9169 32.852ZM43.3545 28.6452C44.2083 28.6452 44.9028 29.3397 44.9028 30.1936C44.9028 31.0475 44.2083 31.742 43.3545 31.742C42.5006 31.742 41.8061 31.0475 41.8061 30.1936C41.8061 29.3397 42.5006 28.6452 43.3545 28.6452ZM41.032 36.3871C41.032 35.1066 42.074 34.0645 43.3546 34.0645C44.6351 34.0645 45.6773 35.1065 45.6773 36.3871H41.032Z" fill="white"/>
<path d="M25.5622 42.9168C26.4757 42.378 27.0967 41.394 27.0967 40.2582C27.0967 38.819 26.1066 37.6174 24.774 37.2714V31.7422H23.2257V37.2714C21.8933 37.6174 20.903 38.819 20.903 40.2582C20.903 41.394 21.5239 42.3779 22.4375 42.9168C21.0804 43.5191 20.1289 44.874 20.1289 46.4517V47.226C20.1289 47.6541 20.4749 48.0003 20.9032 48.0003H27.0967C27.5248 48.0003 27.871 47.6543 27.871 47.226V46.4517C27.8708 44.874 26.9193 43.5191 25.5622 42.9168ZM23.9999 38.7098C24.8538 38.7098 25.5483 39.4043 25.5483 40.2582C25.5483 41.1121 24.8538 41.8066 23.9999 41.8066C23.1461 41.8066 22.4516 41.1121 22.4516 40.2582C22.4516 39.4043 23.1459 38.7098 23.9999 38.7098ZM21.6773 46.4517C21.6773 45.1712 22.7193 44.1291 23.9999 44.1291C25.2806 44.1291 26.3226 45.1711 26.3226 46.4517H21.6773Z" fill="white"/>
<path d="M16.5916 27.2344L7.35467 33.6293C7.02484 33.3049 6.63622 33.0425 6.20812 32.852C7.12097 32.3131 7.74181 31.3293 7.74181 30.1934C7.74181 28.4855 6.35297 27.0967 4.64504 27.0967C2.93711 27.0967 1.54828 28.4855 1.54828 30.1934C1.54828 31.3293 2.16912 32.3131 3.08279 32.852C1.72566 33.4544 0.77417 34.8092 0.77417 36.387V37.1611C0.77417 37.5892 1.12018 37.9354 1.54844 37.9354H7.74197C8.17007 37.9354 8.51624 37.5893 8.51624 37.1611V36.3868C8.51624 35.8642 8.40939 35.3673 8.22127 34.9127L17.4729 28.5078L16.5916 27.2344ZM4.64504 28.6451C5.49892 28.6451 6.19342 29.3396 6.19342 30.1934C6.19342 31.0473 5.49892 31.7418 4.64504 31.7418C3.79116 31.7418 3.09666 31.0473 3.09666 30.1934C3.09666 29.3396 3.791 28.6451 4.64504 28.6451ZM2.32239 36.387C2.32239 35.1065 3.36439 34.0643 4.64504 34.0643C5.9257 34.0643 6.9677 35.1063 6.9677 36.387H2.32239Z" fill="white"/>
<path d="M23.9998 32.5158C19.3043 32.5158 15.4836 28.6951 15.4836 23.9996C15.4836 19.3041 19.3043 15.4834 23.9998 15.4834C28.6953 15.4834 32.516 19.3041 32.516 23.9996C32.516 28.6951 28.6952 32.5158 23.9998 32.5158Z" fill="white" fill-opacity="0.3"/>
<path d="M25.5623 23.562C26.4758 23.0224 27.0968 22.0384 27.0968 20.9034C27.0968 19.1955 25.7079 17.8066 24 17.8066C22.2921 17.8066 20.9033 19.1955 20.9033 20.9034C20.9033 22.0384 21.5241 23.0224 22.4378 23.562C21.0806 24.1643 20.1292 25.5192 20.1292 27.0969V27.8712C20.1292 28.2993 20.4752 28.6455 20.9034 28.6455H27.0969C27.525 28.6455 27.8712 28.2995 27.8712 27.8712V27.0969C27.8709 25.5192 26.9194 24.1643 25.5623 23.562ZM24 19.3552C24.8539 19.3552 25.5484 20.0497 25.5484 20.9036C25.5484 21.7575 24.8539 22.452 24 22.452C23.1461 22.452 22.4516 21.7575 22.4516 20.9036C22.4516 20.0497 23.146 19.3552 24 19.3552ZM21.6774 27.0971C21.6774 25.8166 22.7194 24.7744 24 24.7744C25.2807 24.7744 26.3227 25.8164 26.3227 27.0971H21.6774Z" fill="white"/>
</svg>
