<svg width="34" height="29" viewBox="0 0 34 29" fill="none" xmlns="http://www.w3.org/2000/svg">
<path d="M33.9851 9.17082C33.9683 9.06321 33.9339 8.95787 33.8921 8.85644C33.8828 8.83449 33.8828 8.81212 33.8728 8.78986C33.8716 8.78862 33.8697 8.78615 33.8691 8.78491C33.8691 8.78244 33.8678 8.7812 33.8666 8.77965L30.1065 0.852311C30.0978 0.834067 30.0816 0.817678 30.0716 0.799125C30.0586 0.776861 30.0542 0.74965 30.0398 0.727592C30.0111 0.679354 29.9719 0.641835 29.9381 0.598854C29.9039 0.554636 29.8726 0.506913 29.8346 0.467745C29.7786 0.409612 29.7143 0.360034 29.6489 0.311693C29.6078 0.279534 29.5691 0.243974 29.5242 0.217896C29.4483 0.172441 29.3659 0.139973 29.2824 0.108948C29.2406 0.0931781 29.2002 0.0690589 29.1565 0.0569993C29.0268 0.0207176 28.8922 0 28.7525 0H16.9208H6.59283C6.46131 0 6.33383 0.018244 6.20978 0.0504027C6.16649 0.0618438 6.12694 0.0842107 6.08417 0.0987439C6.00818 0.127192 5.93022 0.152033 5.85891 0.19254C5.81333 0.218618 5.77596 0.253457 5.7335 0.282008C5.67236 0.324989 5.60914 0.366115 5.55485 0.418167C5.51654 0.455583 5.48602 0.499801 5.45197 0.541958C5.4118 0.588753 5.36477 0.631116 5.33197 0.684302L0.225606 8.61185C0.206608 8.64277 0.197577 8.67782 0.180345 8.7106C0.165708 8.73657 0.141416 8.75883 0.128648 8.78728C0.115257 8.81707 0.114634 8.8483 0.101865 8.87675C0.0744596 8.94942 0.0526597 9.02188 0.0354274 9.09712C0.0226589 9.1568 0.0117589 9.21524 0.00553038 9.2741C-0.00163244 9.34831 -0.00100959 9.42231 0.00272754 9.49725C0.00739894 9.55827 0.0117589 9.61826 0.0214132 9.67763C0.0348045 9.7506 0.0579539 9.81904 0.081311 9.88934C0.102488 9.94912 0.121485 10.0088 0.149929 10.0652C0.159272 10.0847 0.16332 10.1069 0.172663 10.127C0.199446 10.1765 0.238997 10.2153 0.271801 10.2598C0.29796 10.2984 0.313843 10.339 0.34374 10.3737L15.7776 28.474C16.0438 28.7859 16.4428 29.0075 16.8404 28.9963C16.8454 28.9963 16.8505 28.9988 16.8538 28.9988C16.8761 29 16.8972 29 16.9197 29C16.9203 29 16.9203 29 16.9203 29C16.9203 29 16.9215 29 16.9228 29C17.0562 29 17.1871 28.9753 17.313 28.9419C17.3504 28.9301 17.3841 28.9184 17.4215 28.9041C17.5144 28.872 17.6048 28.8287 17.6907 28.7779C17.7194 28.7612 17.7499 28.7445 17.778 28.7258C17.8797 28.6558 17.975 28.5754 18.0573 28.4783L33.6497 10.3783C33.6695 10.3548 33.6809 10.3264 33.6983 10.3015C33.7232 10.2703 33.7545 10.2443 33.7756 10.209C33.7981 10.174 33.8093 10.1348 33.828 10.0973C33.8542 10.0494 33.879 10.0011 33.8984 9.94912C33.9277 9.87367 33.9478 9.79709 33.9652 9.7204C33.9764 9.66835 33.989 9.61887 33.9938 9.56693C34.0038 9.48148 34.0001 9.3982 33.9938 9.31347C33.9901 9.26338 33.9925 9.21658 33.9851 9.17082Z" fill="#BA8226"/>
<path fill-rule="evenodd" clip-rule="evenodd" d="M22.5896 8.31952C23.0156 8.74555 23.0156 9.43627 22.5896 9.8623L16.7714 15.6805C16.3454 16.1065 15.6546 16.1065 15.2286 15.6805L12.3195 12.7714C11.8935 12.3454 11.8935 11.6546 12.3195 11.2286C12.7455 10.8026 13.4363 10.8026 13.8623 11.2286L16 13.3663L21.0468 8.31952C21.4728 7.89349 22.1635 7.89349 22.5896 8.31952Z" fill="white"/>
</svg>
