<svg width="497" height="457" viewBox="0 0 497 457" fill="none" xmlns="http://www.w3.org/2000/svg">
<g filter="url(#filter0_d)">
<path d="M395.871 130.64C395.725 129.694 395.427 128.767 395.064 127.876C394.983 127.683 394.983 127.486 394.896 127.29C394.886 127.279 394.869 127.258 394.864 127.247C394.864 127.225 394.853 127.214 394.842 127.2L362.218 57.4945C362.143 57.334 362.002 57.1899 361.916 57.0268C361.802 56.831 361.764 56.5917 361.639 56.3978C361.391 55.9736 361.05 55.6437 360.757 55.2658C360.46 54.877 360.189 54.4573 359.859 54.1129C359.373 53.6018 358.815 53.1658 358.248 52.7407C357.891 52.458 357.555 52.1453 357.166 51.916C356.507 51.5163 355.793 51.2308 355.068 50.958C354.706 50.8193 354.354 50.6072 353.975 50.5012C352.85 50.1822 351.682 50 350.47 50H247.813H158.203C157.061 50 155.955 50.1604 154.879 50.4432C154.503 50.5438 154.16 50.7405 153.789 50.8683C153.13 51.1184 152.453 51.3368 151.835 51.693C151.439 51.9223 151.115 52.2287 150.747 52.4797C150.216 52.8577 149.668 53.2193 149.196 53.677C148.864 54.006 148.599 54.3948 148.304 54.7655C147.955 55.177 147.547 55.5495 147.263 56.0171L102.957 125.725C102.793 125.997 102.714 126.305 102.565 126.593C102.438 126.822 102.227 127.017 102.116 127.267C102 127.529 101.995 127.804 101.884 128.054C101.646 128.693 101.457 129.33 101.307 129.992C101.197 130.517 101.102 131.031 101.048 131.548C100.986 132.201 100.991 132.851 101.024 133.51C101.064 134.047 101.102 134.574 101.186 135.096C101.302 135.738 101.503 136.34 101.705 136.958C101.889 137.484 102.054 138.008 102.301 138.504C102.382 138.675 102.417 138.871 102.498 139.048C102.73 139.483 103.074 139.824 103.358 140.215C103.585 140.555 103.723 140.912 103.982 141.217L237.894 300.375C240.204 303.118 243.665 305.066 247.116 304.967C247.159 304.967 247.203 304.989 247.232 304.989C247.425 305 247.608 305 247.803 305C247.808 305 247.808 305 247.808 305C247.808 305 247.819 305 247.83 305C248.987 305 250.123 304.782 251.216 304.489C251.54 304.385 251.833 304.282 252.157 304.157C252.963 303.874 253.747 303.494 254.493 303.047C254.742 302.9 255.007 302.753 255.251 302.589C256.133 301.974 256.959 301.267 257.674 300.413L392.961 141.258C393.133 141.051 393.231 140.801 393.382 140.582C393.599 140.308 393.87 140.079 394.053 139.769C394.248 139.461 394.345 139.116 394.507 138.787C394.735 138.366 394.95 137.94 395.119 137.484C395.373 136.82 395.547 136.147 395.698 135.473C395.795 135.015 395.904 134.58 395.947 134.123C396.033 133.372 396.001 132.639 395.947 131.894C395.914 131.454 395.935 131.042 395.871 130.64Z" fill="#111111"/>
<path d="M395.871 130.64C395.725 129.694 395.427 128.767 395.064 127.876C394.983 127.683 394.983 127.486 394.896 127.29C394.886 127.279 394.869 127.258 394.864 127.247C394.864 127.225 394.853 127.214 394.842 127.2L362.218 57.4945C362.143 57.334 362.002 57.1899 361.916 57.0268C361.802 56.831 361.764 56.5917 361.639 56.3978C361.391 55.9736 361.05 55.6437 360.757 55.2658C360.46 54.877 360.189 54.4573 359.859 54.1129C359.373 53.6018 358.815 53.1658 358.248 52.7407C357.891 52.458 357.555 52.1453 357.166 51.916C356.507 51.5163 355.793 51.2308 355.068 50.958C354.706 50.8193 354.354 50.6072 353.975 50.5012C352.85 50.1822 351.682 50 350.47 50H247.813H158.203C157.061 50 155.955 50.1604 154.879 50.4432C154.503 50.5438 154.16 50.7405 153.789 50.8683C153.13 51.1184 152.453 51.3368 151.835 51.693C151.439 51.9223 151.115 52.2287 150.747 52.4797C150.216 52.8577 149.668 53.2193 149.196 53.677C148.864 54.006 148.599 54.3948 148.304 54.7655C147.955 55.177 147.547 55.5495 147.263 56.0171L102.957 125.725C102.793 125.997 102.714 126.305 102.565 126.593C102.438 126.822 102.227 127.017 102.116 127.267C102 127.529 101.995 127.804 101.884 128.054C101.646 128.693 101.457 129.33 101.307 129.992C101.197 130.517 101.102 131.031 101.048 131.548C100.986 132.201 100.991 132.851 101.024 133.51C101.064 134.047 101.102 134.574 101.186 135.096C101.302 135.738 101.503 136.34 101.705 136.958C101.889 137.484 102.054 138.008 102.301 138.504C102.382 138.675 102.417 138.871 102.498 139.048C102.73 139.483 103.074 139.824 103.358 140.215C103.585 140.555 103.723 140.912 103.982 141.217L237.894 300.375C240.204 303.118 243.665 305.066 247.116 304.967C247.159 304.967 247.203 304.989 247.232 304.989C247.425 305 247.608 305 247.803 305C247.808 305 247.808 305 247.808 305C247.808 305 247.819 305 247.83 305C248.987 305 250.123 304.782 251.216 304.489C251.54 304.385 251.833 304.282 252.157 304.157C252.963 303.874 253.747 303.494 254.493 303.047C254.742 302.9 255.007 302.753 255.251 302.589C256.133 301.974 256.959 301.267 257.674 300.413L392.961 141.258C393.133 141.051 393.231 140.801 393.382 140.582C393.599 140.308 393.87 140.079 394.053 139.769C394.248 139.461 394.345 139.116 394.507 138.787C394.735 138.366 394.95 137.94 395.119 137.484C395.373 136.82 395.547 136.147 395.698 135.473C395.795 135.015 395.904 134.58 395.947 134.123C396.033 133.372 396.001 132.639 395.947 131.894C395.914 131.454 395.935 131.042 395.871 130.64Z" fill="white"/>
</g>
<defs>
<filter id="filter0_d" x="0" y="0" width="497" height="457" filterUnits="userSpaceOnUse" color-interpolation-filters="sRGB">
<feFlood flood-opacity="0" result="BackgroundImageFix"/>
<feColorMatrix in="SourceAlpha" type="matrix" values="0 0 0 0 0 0 0 0 0 0 0 0 0 0 0 0 0 0 127 0" result="hardAlpha"/>
<feOffset dy="51"/>
<feGaussianBlur stdDeviation="50.5"/>
<feColorMatrix type="matrix" values="0 0 0 0 0 0 0 0 0 0 0 0 0 0 0 0 0 0 0.05 0"/>
<feBlend mode="normal" in2="BackgroundImageFix" result="effect1_dropShadow"/>
<feBlend mode="normal" in="SourceGraphic" in2="effect1_dropShadow" result="shape"/>
</filter>
</defs>
</svg>
