<svg width="594" height="541" viewBox="0 0 594 541" fill="none" xmlns="http://www.w3.org/2000/svg">
<g filter="url(#filter0_d)">
<path d="M492.829 157.204C492.635 155.946 492.238 154.714 491.756 153.529C491.648 153.272 491.648 153.011 491.534 152.75C491.519 152.736 491.498 152.707 491.49 152.693C491.49 152.664 491.476 152.649 491.462 152.631L448.11 59.9632C448.01 59.75 447.823 59.5584 447.708 59.3415C447.557 59.0812 447.507 58.7631 447.341 58.5053C447.01 57.9414 446.558 57.5028 446.169 57.0004C445.774 56.4835 445.414 55.9256 444.976 55.4678C444.329 54.7882 443.589 54.2087 442.835 53.6436C442.361 53.2677 441.914 52.852 441.397 52.5471C440.521 52.0158 439.572 51.6362 438.609 51.2736C438.127 51.0892 437.661 50.8073 437.157 50.6663C435.662 50.2422 434.11 50 432.5 50H296.087H177.012C175.495 50 174.025 50.2133 172.595 50.5892C172.096 50.7229 171.64 50.9844 171.147 51.1543C170.271 51.4868 169.372 51.7772 168.55 52.2507C168.024 52.5556 167.593 52.9628 167.104 53.2966C166.399 53.799 165.67 54.2798 165.044 54.8882C164.602 55.3256 164.251 55.8425 163.858 56.3353C163.395 56.8823 162.853 57.3775 162.474 57.9992L103.601 150.67C103.382 151.031 103.278 151.441 103.079 151.824C102.911 152.127 102.63 152.388 102.483 152.72C102.329 153.069 102.322 153.434 102.174 153.766C101.858 154.616 101.607 155.463 101.408 156.342C101.261 157.04 101.136 157.723 101.064 158.411C100.981 159.278 100.988 160.144 101.031 161.02C101.085 161.733 101.136 162.434 101.247 163.128C101.401 163.981 101.668 164.781 101.937 165.603C102.182 166.302 102.401 166.999 102.729 167.658C102.836 167.886 102.883 168.146 102.991 168.381C103.299 168.96 103.755 169.413 104.134 169.933C104.435 170.385 104.618 170.86 104.963 171.265L282.907 382.851C285.976 386.497 290.575 389.088 295.16 388.957C295.218 388.957 295.277 388.986 295.315 388.986C295.571 389 295.815 389 296.074 389C296.081 389 296.081 389 296.081 389C296.081 389 296.095 389 296.11 389C297.648 389 299.157 388.711 300.609 388.32C301.039 388.183 301.428 388.046 301.859 387.879C302.93 387.504 303.973 386.997 304.964 386.403C305.294 386.208 305.646 386.013 305.97 385.795C307.142 384.977 308.241 384.037 309.19 382.902L488.961 171.319C489.19 171.044 489.321 170.712 489.522 170.421C489.809 170.056 490.169 169.753 490.413 169.339C490.672 168.931 490.801 168.472 491.016 168.034C491.319 167.474 491.605 166.909 491.829 166.302C492.167 165.42 492.398 164.525 492.599 163.628C492.728 163.02 492.873 162.441 492.929 161.834C493.044 160.835 493.001 159.862 492.929 158.871C492.886 158.286 492.914 157.739 492.829 157.204Z" fill="#111111"/>
<path d="M492.829 157.204C492.635 155.946 492.238 154.714 491.756 153.529C491.648 153.272 491.648 153.011 491.534 152.75C491.519 152.736 491.498 152.707 491.49 152.693C491.49 152.664 491.476 152.649 491.462 152.631L448.11 59.9632C448.01 59.75 447.823 59.5584 447.708 59.3415C447.557 59.0812 447.507 58.7631 447.341 58.5053C447.01 57.9414 446.558 57.5028 446.169 57.0004C445.774 56.4835 445.414 55.9256 444.976 55.4678C444.329 54.7882 443.589 54.2087 442.835 53.6436C442.361 53.2677 441.914 52.852 441.397 52.5471C440.521 52.0158 439.572 51.6362 438.609 51.2736C438.127 51.0892 437.661 50.8073 437.157 50.6663C435.662 50.2422 434.11 50 432.5 50H296.087H177.012C175.495 50 174.025 50.2133 172.595 50.5892C172.096 50.7229 171.64 50.9844 171.147 51.1543C170.271 51.4868 169.372 51.7772 168.55 52.2507C168.024 52.5556 167.593 52.9628 167.104 53.2966C166.399 53.799 165.67 54.2798 165.044 54.8882C164.602 55.3256 164.251 55.8425 163.858 56.3353C163.395 56.8823 162.853 57.3775 162.474 57.9992L103.601 150.67C103.382 151.031 103.278 151.441 103.079 151.824C102.911 152.127 102.63 152.388 102.483 152.72C102.329 153.069 102.322 153.434 102.174 153.766C101.858 154.616 101.607 155.463 101.408 156.342C101.261 157.04 101.136 157.723 101.064 158.411C100.981 159.278 100.988 160.144 101.031 161.02C101.085 161.733 101.136 162.434 101.247 163.128C101.401 163.981 101.668 164.781 101.937 165.603C102.182 166.302 102.401 166.999 102.729 167.658C102.836 167.886 102.883 168.146 102.991 168.381C103.299 168.96 103.755 169.413 104.134 169.933C104.435 170.385 104.618 170.86 104.963 171.265L282.907 382.851C285.976 386.497 290.575 389.088 295.16 388.957C295.218 388.957 295.277 388.986 295.315 388.986C295.571 389 295.815 389 296.074 389C296.081 389 296.081 389 296.081 389C296.081 389 296.095 389 296.11 389C297.648 389 299.157 388.711 300.609 388.32C301.039 388.183 301.428 388.046 301.859 387.879C302.93 387.504 303.973 386.997 304.964 386.403C305.294 386.208 305.646 386.013 305.97 385.795C307.142 384.977 308.241 384.037 309.19 382.902L488.961 171.319C489.19 171.044 489.321 170.712 489.522 170.421C489.809 170.056 490.169 169.753 490.413 169.339C490.672 168.931 490.801 168.472 491.016 168.034C491.319 167.474 491.605 166.909 491.829 166.302C492.167 165.42 492.398 164.525 492.599 163.628C492.728 163.02 492.873 162.441 492.929 161.834C493.044 160.835 493.001 159.862 492.929 158.871C492.886 158.286 492.914 157.739 492.829 157.204Z" fill="white"/>
</g>
<path d="M400.909 156.606C400.807 155.942 400.598 155.292 400.343 154.666C400.286 154.53 400.286 154.392 400.226 154.255C400.218 154.247 400.207 154.232 400.203 154.224C400.203 154.209 400.195 154.201 400.188 154.192L377.296 105.261C377.242 105.148 377.144 105.047 377.083 104.933C377.004 104.795 376.977 104.627 376.889 104.491C376.715 104.193 376.476 103.962 376.27 103.696C376.062 103.423 375.872 103.129 375.64 102.887C375.299 102.528 374.908 102.222 374.51 101.924C374.259 101.725 374.024 101.506 373.751 101.345C373.288 101.064 372.787 100.864 372.278 100.672C372.024 100.575 371.777 100.426 371.511 100.352C370.722 100.128 369.902 100 369.052 100H297.018H234.139C233.338 100 232.562 100.113 231.807 100.311C231.543 100.382 231.302 100.52 231.042 100.609C230.579 100.785 230.105 100.938 229.67 101.188C229.393 101.349 229.165 101.564 228.907 101.741C228.535 102.006 228.15 102.26 227.819 102.581C227.586 102.812 227.4 103.085 227.193 103.345C226.948 103.634 226.662 103.896 226.462 104.224L195.374 153.156C195.258 153.347 195.203 153.563 195.098 153.765C195.009 153.926 194.861 154.063 194.783 154.239C194.702 154.423 194.698 154.615 194.62 154.791C194.453 155.24 194.321 155.687 194.216 156.151C194.138 156.52 194.072 156.88 194.034 157.244C193.99 157.702 193.994 158.158 194.017 158.621C194.045 158.998 194.072 159.368 194.13 159.734C194.212 160.185 194.353 160.607 194.495 161.041C194.624 161.41 194.74 161.778 194.913 162.126C194.97 162.247 194.994 162.384 195.051 162.508C195.214 162.814 195.455 163.053 195.655 163.328C195.814 163.566 195.911 163.817 196.093 164.031L290.058 275.753C291.679 277.679 294.107 279.046 296.529 278.977C296.559 278.977 296.59 278.992 296.61 278.992C296.745 279 296.874 279 297.011 279C297.015 279 297.015 279 297.015 279C297.015 279 297.022 279 297.03 279C297.842 279 298.639 278.847 299.406 278.641C299.633 278.569 299.838 278.496 300.066 278.408C300.632 278.21 301.182 277.943 301.705 277.629C301.88 277.526 302.066 277.423 302.237 277.308C302.856 276.876 303.436 276.379 303.937 275.78L398.867 164.059C398.988 163.914 399.057 163.739 399.163 163.585C399.315 163.393 399.505 163.232 399.634 163.014C399.771 162.798 399.839 162.556 399.953 162.325C400.112 162.029 400.264 161.731 400.382 161.41C400.56 160.944 400.682 160.472 400.788 159.998C400.856 159.677 400.933 159.372 400.963 159.051C401.023 158.524 401 158.01 400.963 157.487C400.94 157.177 400.954 156.889 400.909 156.606Z" fill="#BA8226"/>
<path opacity="0.6" d="M185.986 326.171C185.969 326.063 185.936 325.958 185.895 325.856C185.886 325.834 185.886 325.812 185.877 325.79C185.875 325.789 185.874 325.786 185.873 325.785C185.873 325.782 185.872 325.781 185.871 325.78L182.221 317.852C182.213 317.834 182.197 317.818 182.187 317.799C182.174 317.777 182.17 317.75 182.156 317.728C182.128 317.679 182.09 317.642 182.058 317.599C182.024 317.555 181.994 317.507 181.957 317.468C181.903 317.41 181.84 317.36 181.777 317.312C181.737 317.28 181.699 317.244 181.656 317.218C181.582 317.172 181.502 317.14 181.421 317.109C181.381 317.093 181.341 317.069 181.299 317.057C181.173 317.021 181.042 317 180.907 317H169.423H159.399C159.271 317 159.148 317.018 159.027 317.05C158.985 317.062 158.947 317.084 158.905 317.099C158.831 317.127 158.756 317.152 158.687 317.193C158.642 317.219 158.606 317.253 158.565 317.282C158.506 317.325 158.444 317.366 158.391 317.418C158.354 317.456 158.325 317.5 158.292 317.542C158.253 317.589 158.207 317.631 158.175 317.684L153.219 325.612C153.201 325.643 153.192 325.678 153.175 325.711C153.161 325.737 153.137 325.759 153.125 325.787C153.112 325.817 153.111 325.848 153.099 325.877C153.072 325.949 153.051 326.022 153.034 326.097C153.022 326.157 153.011 326.215 153.005 326.274C152.998 326.348 152.999 326.422 153.003 326.497C153.007 326.558 153.011 326.618 153.021 326.678C153.034 326.751 153.056 326.819 153.079 326.889C153.099 326.949 153.118 327.009 153.146 327.065C153.155 327.085 153.159 327.107 153.168 327.127C153.194 327.176 153.232 327.215 153.264 327.26C153.289 327.298 153.305 327.339 153.334 327.374L168.314 345.474C168.572 345.786 168.959 346.008 169.345 345.996C169.35 345.996 169.355 345.999 169.358 345.999C169.38 346 169.4 346 169.422 346C169.423 346 169.423 346 169.423 346C169.423 346 169.424 346 169.425 346C169.555 346 169.682 345.975 169.804 345.942C169.84 345.93 169.873 345.918 169.909 345.904C169.999 345.872 170.087 345.829 170.17 345.778C170.198 345.761 170.228 345.744 170.255 345.726C170.354 345.656 170.446 345.575 170.526 345.478L185.66 327.378C185.679 327.355 185.69 327.326 185.707 327.302C185.731 327.27 185.762 327.244 185.782 327.209C185.804 327.174 185.815 327.135 185.833 327.097C185.859 327.049 185.883 327.001 185.901 326.949C185.93 326.874 185.949 326.797 185.966 326.72C185.977 326.668 185.989 326.619 185.994 326.567C186.004 326.481 186 326.398 185.994 326.313C185.99 326.263 185.993 326.217 185.986 326.171Z" fill="#BA8226"/>
<path opacity="0.6" d="M482.986 88.1708C482.969 88.0632 482.936 87.9579 482.895 87.8564C482.886 87.8345 482.886 87.8121 482.877 87.7899C482.875 87.7886 482.874 87.7861 482.873 87.7849C482.873 87.7824 482.872 87.7812 482.871 87.7797L479.221 79.8523C479.213 79.8341 479.197 79.8177 479.187 79.7991C479.174 79.7769 479.17 79.7496 479.156 79.7276C479.128 79.6794 479.09 79.6418 479.058 79.5989C479.024 79.5546 478.994 79.5069 478.957 79.4677C478.903 79.4096 478.84 79.36 478.777 79.3117C478.737 79.2795 478.699 79.244 478.656 79.2179C478.582 79.1724 478.502 79.14 478.421 79.1089C478.381 79.0932 478.341 79.0691 478.299 79.057C478.173 79.0207 478.042 79 477.907 79H466.423H456.399C456.271 79 456.148 79.0182 456.027 79.0504C455.985 79.0618 455.947 79.0842 455.905 79.0987C455.831 79.1272 455.756 79.152 455.687 79.1925C455.642 79.2186 455.606 79.2535 455.565 79.282C455.506 79.325 455.444 79.3661 455.391 79.4182C455.354 79.4556 455.325 79.4998 455.292 79.542C455.253 79.5888 455.207 79.6311 455.175 79.6843L450.219 87.6119C450.201 87.6428 450.192 87.6778 450.175 87.7106C450.161 87.7366 450.137 87.7588 450.125 87.7873C450.112 87.8171 450.111 87.8483 450.099 87.8767C450.072 87.9494 450.051 88.0219 450.034 88.0971C450.022 88.1568 450.011 88.2152 450.005 88.2741C449.998 88.3483 449.999 88.4223 450.003 88.4972C450.007 88.5583 450.011 88.6183 450.021 88.6776C450.034 88.7506 450.056 88.819 450.079 88.8893C450.099 88.9491 450.118 89.0088 450.146 89.0652C450.155 89.0847 450.159 89.1069 450.168 89.127C450.194 89.1765 450.232 89.2153 450.264 89.2598C450.289 89.2984 450.305 89.339 450.334 89.3737L465.314 107.474C465.572 107.786 465.959 108.008 466.345 107.996C466.35 107.996 466.355 107.999 466.358 107.999C466.38 108 466.4 108 466.422 108C466.423 108 466.423 108 466.423 108C466.423 108 466.424 108 466.425 108C466.555 108 466.682 107.975 466.804 107.942C466.84 107.93 466.873 107.918 466.909 107.904C466.999 107.872 467.087 107.829 467.17 107.778C467.198 107.761 467.228 107.744 467.255 107.726C467.354 107.656 467.446 107.575 467.526 107.478L482.66 89.3783C482.679 89.3548 482.69 89.3264 482.707 89.3015C482.731 89.2703 482.762 89.2443 482.782 89.209C482.804 89.174 482.815 89.1348 482.833 89.0973C482.859 89.0494 482.883 89.0011 482.901 88.9491C482.93 88.8737 482.949 88.7971 482.966 88.7204C482.977 88.6684 482.989 88.6189 482.994 88.5669C483.004 88.4815 483 88.3982 482.994 88.3135C482.99 88.2634 482.993 88.2166 482.986 88.1708Z" fill="#BA8226"/>
<path d="M337.677 146.096C331.346 146.096 326.168 151.069 325.808 157.312L323.129 159.322V139.484H320.484V152.884L315.156 149.333C314.774 143.11 309.605 138.161 303.29 138.161H301.968V139.484C301.968 145.901 307.075 151.134 313.437 151.364L320.484 156.062V164.612H309.903V169.902V172.548V175.193V177.838V180.483V183.129V185.774V188.419V191.064V193.71V199H333.709V193.71V191.064V188.419V185.774V183.129V180.483V177.838V175.193V172.548V169.902V164.612H323.129V162.628L327.569 159.298C333.912 159.047 339 153.823 339 147.419V146.097H337.677V146.096ZM304.724 140.917C308.684 141.535 311.82 144.671 312.437 148.63C308.478 148.013 305.342 144.877 304.724 140.917ZM320.484 172.548V175.193H317.839V172.548H320.484ZM320.484 177.838V180.483H317.839V177.838H320.484ZM320.484 183.128V185.773H317.839V183.128H320.484ZM320.484 188.418V191.064H317.839V188.418H320.484ZM320.484 193.709V196.354H317.839V193.709H320.484ZM323.129 193.709H325.774V196.354H323.129V193.709ZM323.129 191.064V188.418H325.774V191.064H323.129ZM323.129 185.773V183.128H325.774V185.773H323.129ZM323.129 180.483V177.838H325.774V180.483H323.129ZM323.129 175.193V172.548H325.774V175.193H323.129ZM323.129 169.902V167.257H325.774V169.902H323.129ZM320.484 169.902H317.839V167.257H320.484V169.902ZM312.548 167.258H315.194V169.903H312.548V167.258ZM312.548 172.548H315.194V175.193H312.548V172.548ZM312.548 177.838H315.194V180.483H312.548V177.838ZM312.548 183.128H315.194V185.773H312.548V183.128ZM312.548 188.418H315.194V191.064H312.548V188.418ZM312.548 193.709H315.194V196.354H312.548V193.709ZM331.064 196.354H328.419V193.709H331.064V196.354ZM331.064 191.064H328.419V188.418H331.064V191.064ZM331.064 185.773H328.419V183.128H331.064V185.773ZM331.064 180.483H328.419V177.838H331.064V180.483ZM331.064 175.193H328.419V172.548H331.064V175.193ZM331.064 169.902H328.419V167.257H331.064V169.902ZM328.53 156.566C329.148 152.606 332.284 149.47 336.243 148.853C335.626 152.812 332.49 155.948 328.53 156.566Z" fill="white"/>
<path d="M321.807 140.806C315.243 140.806 309.903 135.467 309.903 128.903C309.903 122.339 315.243 117 321.807 117C328.37 117 333.71 122.339 333.71 128.903C333.71 135.467 328.37 140.806 321.807 140.806Z" fill="white" fill-opacity="0.3"/>
<path d="M323.129 132.871H320.484C319.755 132.871 319.161 132.278 319.161 131.548H316.516C316.516 133.736 318.296 135.516 320.484 135.516V136.838H323.129V135.516C325.316 135.516 327.097 133.736 327.097 131.548C327.097 129.361 325.317 127.58 323.129 127.58H320.484C319.755 127.58 319.161 126.988 319.161 126.258C319.161 125.528 319.755 124.936 320.484 124.936H323.129C323.858 124.936 324.451 125.528 324.451 126.258H327.097C327.097 124.071 325.317 122.29 323.129 122.29V120.968H320.484V122.29C318.296 122.29 316.516 124.07 316.516 126.258C316.516 128.446 318.296 130.226 320.484 130.226H323.129C323.858 130.226 324.451 130.818 324.451 131.548C324.451 132.278 323.858 132.871 323.129 132.871Z" fill="white"/>
<path d="M283.452 180.484V183.129V185.774V188.419V191.065V193.71V199H307.258V193.71V191.065V188.419V185.774V183.129V180.484V175.193H283.452V180.484ZM286.097 183.129H288.742V185.774H286.097V183.129ZM291.387 185.774V183.129H294.032V185.774H291.387ZM294.032 188.419V191.064H291.387V188.419H294.032ZM294.032 193.709V196.355H291.387V193.709H294.032ZM296.678 193.709H299.323V196.355H296.678V193.709ZM296.678 191.064V188.419H299.323V191.064H296.678ZM296.678 185.774V183.129H299.323V185.774H296.678ZM296.678 180.484V177.838H299.323V180.484H296.678ZM294.032 180.484H291.387V177.838H294.032V180.484ZM286.097 188.419H288.742V191.064H286.097V188.419ZM286.097 193.709H288.742V196.355H286.097V193.709ZM304.613 196.354H301.968V193.709H304.613V196.354ZM304.613 191.064H301.968V188.419H304.613V191.064ZM304.613 185.774H301.968V183.129H304.613V185.774ZM304.613 180.484H301.968V177.838H304.613V180.484ZM286.097 177.838H288.742V180.484H286.097V177.838Z" fill="white"/>
<path d="M257.001 191.064V193.709V198.999H280.807V193.709V191.064V185.773H257.001V191.064ZM259.646 193.709H262.291V196.354H259.646V193.709ZM270.226 193.709H272.872V196.354H270.226V193.709ZM267.581 196.354H264.936V193.709H267.581V196.354ZM270.226 191.064V188.418H272.872V191.064H270.226ZM267.581 191.064H264.936V188.418H267.581V191.064ZM278.162 196.354H275.517V193.709H278.162V196.354ZM278.162 191.064H275.517V188.418H278.162V191.064ZM259.646 188.418H262.291V191.064H259.646V188.418Z" fill="white"/>
<path d="M277.227 154.511L288.2 161.369L297.003 131.188L299.462 136.107L301.829 134.925L297.269 125.806L288.151 130.365L289.333 132.732L294.56 130.119L286.639 157.275L276.452 150.908L257.223 179.749L259.424 181.217L277.227 154.511Z" fill="white"/>
<defs>
<filter id="filter0_d" x="0" y="0" width="594" height="541" filterUnits="userSpaceOnUse" color-interpolation-filters="sRGB">
<feFlood flood-opacity="0" result="BackgroundImageFix"/>
<feColorMatrix in="SourceAlpha" type="matrix" values="0 0 0 0 0 0 0 0 0 0 0 0 0 0 0 0 0 0 127 0" result="hardAlpha"/>
<feOffset dy="51"/>
<feGaussianBlur stdDeviation="50.5"/>
<feColorMatrix type="matrix" values="0 0 0 0 0 0 0 0 0 0 0 0 0 0 0 0 0 0 0.05 0"/>
<feBlend mode="normal" in2="BackgroundImageFix" result="effect1_dropShadow"/>
<feBlend mode="normal" in="SourceGraphic" in2="effect1_dropShadow" result="shape"/>
</filter>
</defs>
</svg>
