<svg width="117" height="117" viewBox="0 0 117 117" fill="none" xmlns="http://www.w3.org/2000/svg">
<path d="M116.702 56.2621L58.5 116.404L0.297729 56.2621L23.5788 27.1611H93.4212L116.702 56.2621Z" fill="#BA8226"/>
<path d="M116.702 54.3217H81.1347L95.1343 28.0744L91.708 26.2487L77.7144 52.4864L60.1141 26.086L58.5 27.1608L56.8858 26.084L39.2856 52.4844L25.2919 26.2467L21.8657 28.0724L35.8653 54.3217H0.297729V58.202H37.6866L56.6526 117L58.4996 116.404L60.3466 117L79.3125 58.202H116.701V54.3217H116.702ZM74.2765 54.3217H42.7231L58.4996 30.6588L74.2765 54.3217ZM58.5 110.083L41.7649 58.2016H75.2371L58.5 110.083Z" fill="white"/>
<path d="M56.5597 15.5204H60.4401V9.70018H66.2603V5.82027H60.4401V0H56.5597V5.82027H50.7399V9.70018H56.5597V15.5204Z" fill="white"/>
<path d="M95.361 21.3408H99.2413V15.5205H105.062V11.6406H99.2413V5.82031H95.361V11.6406H89.5408V15.5205H95.361V21.3408Z" fill="white"/>
<path d="M17.7586 21.3408H21.6385V15.5205H27.4588V11.6406H21.6385V5.82031H17.7586V11.6406H11.9384V15.5205H17.7586V21.3408Z" fill="white"/>
</svg>
