<svg width="594" height="541" viewBox="0 0 594 541" fill="none" xmlns="http://www.w3.org/2000/svg">
<g filter="url(#filter0_d)">
<path d="M492.829 157.204C492.635 155.946 492.238 154.714 491.756 153.529C491.648 153.272 491.648 153.011 491.534 152.75C491.519 152.736 491.498 152.707 491.49 152.693C491.49 152.664 491.476 152.649 491.462 152.631L448.11 59.9632C448.01 59.75 447.823 59.5584 447.708 59.3415C447.557 59.0812 447.507 58.7631 447.341 58.5053C447.01 57.9414 446.558 57.5028 446.169 57.0004C445.774 56.4835 445.414 55.9256 444.976 55.4678C444.329 54.7882 443.589 54.2087 442.835 53.6436C442.361 53.2677 441.914 52.852 441.397 52.5471C440.521 52.0158 439.572 51.6362 438.609 51.2736C438.127 51.0892 437.661 50.8073 437.157 50.6663C435.662 50.2422 434.11 50 432.5 50H296.087H177.012C175.495 50 174.025 50.2133 172.595 50.5892C172.096 50.7229 171.64 50.9844 171.147 51.1543C170.271 51.4868 169.372 51.7772 168.55 52.2507C168.024 52.5556 167.593 52.9628 167.104 53.2966C166.399 53.799 165.67 54.2798 165.044 54.8882C164.602 55.3256 164.251 55.8425 163.858 56.3353C163.395 56.8823 162.853 57.3775 162.474 57.9992L103.601 150.67C103.382 151.031 103.278 151.441 103.079 151.824C102.911 152.127 102.63 152.388 102.483 152.72C102.329 153.069 102.322 153.434 102.174 153.766C101.858 154.616 101.607 155.463 101.408 156.342C101.261 157.04 101.136 157.723 101.064 158.411C100.981 159.278 100.988 160.144 101.031 161.02C101.085 161.733 101.136 162.434 101.247 163.128C101.401 163.981 101.668 164.781 101.937 165.603C102.182 166.302 102.401 166.999 102.729 167.658C102.836 167.886 102.883 168.146 102.991 168.381C103.299 168.96 103.755 169.413 104.134 169.933C104.435 170.385 104.618 170.86 104.963 171.265L282.907 382.851C285.976 386.497 290.575 389.088 295.16 388.957C295.218 388.957 295.277 388.986 295.315 388.986C295.571 389 295.815 389 296.074 389C296.081 389 296.081 389 296.081 389C296.081 389 296.095 389 296.11 389C297.648 389 299.157 388.711 300.609 388.32C301.039 388.183 301.428 388.046 301.859 387.879C302.93 387.504 303.973 386.997 304.964 386.403C305.294 386.208 305.646 386.013 305.97 385.795C307.142 384.977 308.241 384.037 309.19 382.902L488.961 171.319C489.19 171.044 489.321 170.712 489.522 170.421C489.809 170.056 490.169 169.753 490.413 169.339C490.672 168.931 490.801 168.472 491.016 168.034C491.319 167.474 491.605 166.909 491.829 166.302C492.167 165.42 492.398 164.525 492.599 163.628C492.728 163.02 492.873 162.441 492.929 161.834C493.044 160.835 493.001 159.862 492.929 158.871C492.886 158.286 492.914 157.739 492.829 157.204Z" fill="#111111"/>
<path d="M492.829 157.204C492.635 155.946 492.238 154.714 491.756 153.529C491.648 153.272 491.648 153.011 491.534 152.75C491.519 152.736 491.498 152.707 491.49 152.693C491.49 152.664 491.476 152.649 491.462 152.631L448.11 59.9632C448.01 59.75 447.823 59.5584 447.708 59.3415C447.557 59.0812 447.507 58.7631 447.341 58.5053C447.01 57.9414 446.558 57.5028 446.169 57.0004C445.774 56.4835 445.414 55.9256 444.976 55.4678C444.329 54.7882 443.589 54.2087 442.835 53.6436C442.361 53.2677 441.914 52.852 441.397 52.5471C440.521 52.0158 439.572 51.6362 438.609 51.2736C438.127 51.0892 437.661 50.8073 437.157 50.6663C435.662 50.2422 434.11 50 432.5 50H296.087H177.012C175.495 50 174.025 50.2133 172.595 50.5892C172.096 50.7229 171.64 50.9844 171.147 51.1543C170.271 51.4868 169.372 51.7772 168.55 52.2507C168.024 52.5556 167.593 52.9628 167.104 53.2966C166.399 53.799 165.67 54.2798 165.044 54.8882C164.602 55.3256 164.251 55.8425 163.858 56.3353C163.395 56.8823 162.853 57.3775 162.474 57.9992L103.601 150.67C103.382 151.031 103.278 151.441 103.079 151.824C102.911 152.127 102.63 152.388 102.483 152.72C102.329 153.069 102.322 153.434 102.174 153.766C101.858 154.616 101.607 155.463 101.408 156.342C101.261 157.04 101.136 157.723 101.064 158.411C100.981 159.278 100.988 160.144 101.031 161.02C101.085 161.733 101.136 162.434 101.247 163.128C101.401 163.981 101.668 164.781 101.937 165.603C102.182 166.302 102.401 166.999 102.729 167.658C102.836 167.886 102.883 168.146 102.991 168.381C103.299 168.96 103.755 169.413 104.134 169.933C104.435 170.385 104.618 170.86 104.963 171.265L282.907 382.851C285.976 386.497 290.575 389.088 295.16 388.957C295.218 388.957 295.277 388.986 295.315 388.986C295.571 389 295.815 389 296.074 389C296.081 389 296.081 389 296.081 389C296.081 389 296.095 389 296.11 389C297.648 389 299.157 388.711 300.609 388.32C301.039 388.183 301.428 388.046 301.859 387.879C302.93 387.504 303.973 386.997 304.964 386.403C305.294 386.208 305.646 386.013 305.97 385.795C307.142 384.977 308.241 384.037 309.19 382.902L488.961 171.319C489.19 171.044 489.321 170.712 489.522 170.421C489.809 170.056 490.169 169.753 490.413 169.339C490.672 168.931 490.801 168.472 491.016 168.034C491.319 167.474 491.605 166.909 491.829 166.302C492.167 165.42 492.398 164.525 492.599 163.628C492.728 163.02 492.873 162.441 492.929 161.834C493.044 160.835 493.001 159.862 492.929 158.871C492.886 158.286 492.914 157.739 492.829 157.204Z" fill="white"/>
</g>
<defs>
<filter id="filter0_d" x="0" y="0" width="594" height="541" filterUnits="userSpaceOnUse" color-interpolation-filters="sRGB">
<feFlood flood-opacity="0" result="BackgroundImageFix"/>
<feColorMatrix in="SourceAlpha" type="matrix" values="0 0 0 0 0 0 0 0 0 0 0 0 0 0 0 0 0 0 127 0" result="hardAlpha"/>
<feOffset dy="51"/>
<feGaussianBlur stdDeviation="50.5"/>
<feColorMatrix type="matrix" values="0 0 0 0 0 0 0 0 0 0 0 0 0 0 0 0 0 0 0.05 0"/>
<feBlend mode="normal" in2="BackgroundImageFix" result="effect1_dropShadow"/>
<feBlend mode="normal" in="SourceGraphic" in2="effect1_dropShadow" result="shape"/>
</filter>
</defs>
</svg>
