<svg width="18" height="15" viewBox="0 0 18 15" fill="none" xmlns="http://www.w3.org/2000/svg">
<path opacity="0.6" d="M17.3388 4.74353C17.3302 4.68787 17.3127 4.63338 17.2913 4.58092C17.2866 4.56956 17.2866 4.55799 17.2815 4.54648C17.2808 4.54584 17.2799 4.54456 17.2796 4.54392C17.2796 4.54264 17.2789 4.542 17.2783 4.5412L15.36 0.44085C15.3555 0.431414 15.3472 0.422937 15.3422 0.41334C15.3355 0.401825 15.3333 0.38775 15.3259 0.376341C15.3113 0.35139 15.2913 0.331984 15.2741 0.309752C15.2566 0.286881 15.2406 0.262196 15.2213 0.241937C15.1927 0.211868 15.1599 0.186224 15.1265 0.16122C15.1055 0.144587 15.0858 0.126193 15.0629 0.112705C15.0241 0.0891937 14.9821 0.0724 14.9395 0.0563526C14.9182 0.0481956 14.8975 0.0357201 14.8753 0.0294824C14.8091 0.010716 14.7404 0 14.6692 0H8.63277H3.36358C3.29648 0 3.23144 0.00943653 3.16815 0.0260704C3.14607 0.0319882 3.12589 0.0435572 3.10407 0.0510745C3.0653 0.065789 3.02552 0.0786376 2.98914 0.0995898C2.96589 0.113078 2.94682 0.131098 2.92516 0.145866C2.89397 0.168098 2.86171 0.18937 2.83401 0.216293C2.81447 0.235646 2.7989 0.258518 2.78153 0.280323C2.76103 0.304527 2.73704 0.326439 2.7203 0.353949L0.115101 4.45441C0.105409 4.4704 0.100801 4.48853 0.0920096 4.50548C0.084542 4.51892 0.0721488 4.53043 0.0656345 4.54515C0.0588024 4.56055 0.0584846 4.57671 0.0519703 4.59142C0.0379883 4.62901 0.0268663 4.66649 0.0180746 4.70541C0.0115603 4.73628 0.00599925 4.7665 0.00282153 4.79695C-0.000832851 4.83533 -0.000515079 4.87361 0.00139155 4.91237C0.00377485 4.94393 0.00599925 4.97496 0.0109247 5.00567C0.0177568 5.04341 0.0295674 5.07881 0.0414838 5.11517C0.0522881 5.1461 0.0619801 5.17697 0.0764917 5.20613C0.0812583 5.2162 0.0833238 5.22772 0.0880904 5.23812C0.101755 5.26371 0.121933 5.28375 0.138669 5.30678C0.152016 5.32678 0.160119 5.34778 0.175372 5.3657L8.04956 14.7279C8.18535 14.8893 8.38888 15.0039 8.59178 14.9981C8.59432 14.9981 8.59692 14.9994 8.59861 14.9994C8.60995 15 8.62075 15 8.63219 15C8.63251 15 8.63251 15 8.63251 15C8.63251 15 8.63315 15 8.63378 15C8.70184 15 8.76862 14.9872 8.83286 14.9699C8.85193 14.9639 8.86914 14.9578 8.88821 14.9504C8.93561 14.9338 8.98174 14.9114 9.02559 14.8851C9.04021 14.8765 9.05578 14.8678 9.07014 14.8582C9.12199 14.822 9.1706 14.7804 9.2126 14.7302L17.1677 5.36809C17.1778 5.35594 17.1835 5.34122 17.1924 5.32838C17.2052 5.31222 17.2211 5.29879 17.2319 5.2805C17.2433 5.26243 17.2491 5.24211 17.2586 5.22276C17.272 5.19797 17.2847 5.17297 17.2946 5.1461C17.3095 5.10707 17.3197 5.06746 17.3286 5.02779C17.3343 5.00087 17.3407 4.97528 17.3432 4.94841C17.3483 4.90421 17.3464 4.86114 17.3432 4.81731C17.3413 4.7914 17.3425 4.7672 17.3388 4.74353Z" fill="#BA8226"/>
</svg>
