<svg width="56" height="38" viewBox="0 0 56 38" fill="none" xmlns="http://www.w3.org/2000/svg">
<path d="M29.7878 10.2393V13.9479C31.3095 14.4872 32.5139 15.6905 33.0521 17.2122H36.7608C36.0501 13.7091 33.2909 10.9499 29.7878 10.2393Z" fill="white" fill-opacity="0.3"/>
<path d="M33.0506 20.7886C32.3147 22.8709 30.3353 24.3649 27.9999 24.3649C25.037 24.3649 22.6354 21.9634 22.6354 19.0005C22.6354 16.666 24.1294 14.6866 26.2117 13.9497V10.2422C22.1311 11.0709 19.0591 14.6751 19.0591 19.0006C19.0591 23.9386 23.0619 27.9414 27.9999 27.9414C32.3245 27.9414 35.9294 24.8694 36.7583 20.7888H33.0506V20.7886Z" fill="white" fill-opacity="0.3"/>
<path d="M55.5008 18.419C55.052 17.895 44.3168 5.58887 27.9998 5.58887C11.6828 5.58887 0.947772 17.8948 0.498968 18.419L0 18.9998L0.498968 19.581C0.947772 20.1049 11.683 32.4111 28 32.4111C44.317 32.4111 55.0522 20.1049 55.501 19.581L56 18.9998L55.5008 18.419ZM39.6229 18.9998C39.6229 25.4085 34.4088 30.6229 27.9998 30.6229C21.5909 30.6229 16.3769 25.4085 16.3769 18.9998C16.3769 12.591 21.5912 7.37665 27.9998 7.37665C34.4084 7.37665 39.6229 12.591 39.6229 18.9998ZM2.39604 18.999C4.21643 17.1081 10.5205 11.1241 19.599 8.5615C16.5476 11.022 14.5885 14.7843 14.5885 19C14.5885 23.2128 16.5447 26.9734 19.5917 29.4339C10.5277 26.8677 4.21739 20.8881 2.39604 18.999ZM36.4006 29.4382C39.452 26.9777 41.4111 23.2155 41.4111 18.9998C41.4111 14.7868 39.4549 11.0264 36.4079 8.56589C45.473 11.1319 51.7824 17.1115 53.6038 19.0007C51.7834 20.8917 45.4791 26.8759 36.4006 29.4382Z" fill="white"/>
<path d="M27.9998 2.01277C35.5431 2.01277 42.8969 4.35712 49.8573 8.98116L50.8461 7.49169C43.6898 2.73795 35.7889 0.224609 27.9996 0.224609C21.7831 0.224609 15.6299 1.76863 9.7085 4.81298L10.5266 6.40353C16.1918 3.48984 22.0713 2.01277 27.9998 2.01277Z" fill="white"/>
<path d="M8.77446 7.3616L7.88658 5.80957C6.92813 6.35756 6.0082 6.92443 5.15332 7.49225L6.1421 8.98172C6.96494 8.43621 7.84996 7.89089 8.77446 7.3616Z" fill="white"/>
<path d="M27.9999 35.9879C20.4566 35.9879 13.1027 33.6436 6.14234 29.0195L5.15356 30.509C12.3098 35.2627 20.2107 37.7761 28 37.7761C34.2175 37.7761 40.3705 36.2311 46.2911 33.1868L45.4731 31.5962C39.8089 34.5108 33.9295 35.9879 27.9999 35.9879Z" fill="white"/>
<path d="M47.2253 30.6396L48.1132 32.1917C49.0717 31.6437 49.9916 31.0768 50.8465 30.509L49.8577 29.0195C49.0349 29.565 48.1498 30.1105 47.2253 30.6396Z" fill="white"/>
</svg>
