<svg width="15" height="18" viewBox="0 0 15 18" fill="none" xmlns="http://www.w3.org/2000/svg">
<path fill-rule="evenodd" clip-rule="evenodd" d="M14.2803 17.7803C13.9874 18.0732 13.5126 18.0732 13.2197 17.7803L5.21967 9.78033C4.92678 9.48744 4.92678 9.01256 5.21967 8.71967L13.2197 0.719669C13.5126 0.426777 13.9874 0.426777 14.2803 0.719669C14.5732 1.01256 14.5732 1.48744 14.2803 1.78033L6.81066 9.25L14.2803 16.7197C14.5732 17.0126 14.5732 17.4874 14.2803 17.7803Z" fill="#BBBBBB"/>
<path fill-rule="evenodd" clip-rule="evenodd" d="M9.28033 17.7803C8.98744 18.0732 8.51256 18.0732 8.21967 17.7803L0.21967 9.78033C-0.0732234 9.48744 -0.0732234 9.01256 0.21967 8.71967L8.21967 0.719669C8.51256 0.426777 8.98744 0.426777 9.28033 0.719669C9.57322 1.01256 9.57322 1.48744 9.28033 1.78033L1.81066 9.25L9.28033 16.7197C9.57322 17.0126 9.57322 17.4874 9.28033 17.7803Z" fill="#BBBBBB"/>
</svg>
