<svg width="43" height="44" viewBox="0 0 43 44" fill="none" xmlns="http://www.w3.org/2000/svg">
<path d="M35.8157 23.9983L29.454 23.3317C29.4433 23.3306 29.4327 23.3307 29.422 23.33C29.422 23.33 26.3042 20.2175 26.2896 20.2048L28.8087 17.6197C29.1399 17.2797 29.1328 16.7356 28.7929 16.4044C28.4528 16.0731 27.9089 16.0803 27.5776 16.4201L23.3447 20.764L26.9159 9.86588H33.9645L32.9749 10.8812C32.6437 11.2212 32.6507 11.7653 32.9906 12.0966C33.3306 12.4279 33.8747 12.4207 34.206 12.0808L36.6175 9.60627C36.889 9.32748 36.9395 8.90098 36.7403 8.56659L31.8857 0.419547C31.7308 0.159328 31.4503 0 31.1475 0H11.73C11.4272 0 11.1467 0.159328 10.9917 0.419547L6.13731 8.56677C5.93811 8.90115 5.98847 9.32766 6.26012 9.60644L16.5948 20.212C16.5828 20.2226 16.5707 20.233 16.5593 20.2443L13.4711 23.3291C13.4552 23.3299 13.4394 23.3301 13.4234 23.3317L7.06174 23.9983C3.03591 24.42 0 27.7906 0 31.8386V43.1406C0 43.6152 0.384828 44 0.859375 44H42.0181C42.4927 44 42.8775 43.6152 42.8775 43.1406V31.8386C42.8775 27.7906 39.8416 24.42 35.8157 23.9983ZM17.6075 27.7013L19.1763 29.2701L17.9042 36.9303L13.9966 25.0018L17.6075 27.7013ZM11.73 2.53834L15.072 8.14722H8.38802L11.73 2.53834ZM34.4895 8.14722H27.8055L31.1474 2.53834L34.4895 8.14722ZM25.1072 9.86597L21.4387 21.0607L17.7703 9.86588H25.1072V9.86597ZM18.0967 8.14722L21.4387 2.53825L24.7808 8.14722H18.0967ZM26.2931 7.32772L22.9512 1.71875H29.6351L26.2931 7.32772ZM16.5844 7.32772L13.2424 1.71875H19.9263L16.5844 7.32772ZM15.9616 9.86597L19.5328 20.764L8.91292 9.86597H15.9616ZM19.4108 27.0739L21.4535 25.1359L23.4963 27.0739L21.4535 29.1167L19.4108 27.0739ZM19.0604 40.4598L20.6705 30.7643L20.8459 30.9396C21.0137 31.1074 21.2336 31.1914 21.4535 31.1914C21.6734 31.1914 21.8934 31.1074 22.0612 30.9396L22.2365 30.7643L23.8465 40.4597C23.8465 40.4597 23.2857 42.2074 23.2818 42.2812H19.6512C19.6448 42.2506 19.0604 40.4598 19.0604 40.4598ZM25.0028 36.9303L23.7308 29.2701L25.3355 27.6653C25.3375 27.6634 25.3392 27.661 25.3412 27.6591L28.9153 24.9871L25.0028 36.9303ZM27.5342 23.8737L24.7861 25.9281L22.7893 24.0337L25.6358 21.9772L27.5342 23.8737ZM17.2565 21.9772L20.1029 24.0337L18.1061 25.9282L15.358 23.8737L17.2565 21.9772ZM1.71875 31.8386C1.71875 28.6731 4.09269 26.0374 7.24084 25.7076L12.2473 25.183L17.8484 42.2812H7.80888V35.1126C7.80888 34.6381 7.42406 34.2532 6.94951 34.2532C6.47496 34.2532 6.09013 34.6381 6.09013 35.1126V42.2812H1.71875V31.8386ZM41.1587 42.2812H36.8169V35.1126C36.8169 34.6381 36.4321 34.2532 35.9575 34.2532C35.483 34.2532 35.0982 34.6381 35.0982 35.1126V42.2812H25.0585L30.6587 25.186L35.6367 25.7076C38.7848 26.0374 41.1587 28.6731 41.1587 31.8386V42.2812Z" fill="#EEEEEE"/>
<path d="M30.8918 15.1094C31.3665 15.1094 31.7512 14.7246 31.7512 14.25C31.7512 13.7754 31.3665 13.3906 30.8918 13.3906C30.4172 13.3906 30.0325 13.7754 30.0325 14.25C30.0325 14.7246 30.4172 15.1094 30.8918 15.1094Z" fill="#EEEEEE"/>
<path d="M21.4387 37.583C29.0326 37.583 35.1887 31.4269 35.1887 23.833C35.1887 16.2391 29.0326 10.083 21.4387 10.083C13.8448 10.083 7.68872 16.2391 7.68872 23.833C7.68872 31.4269 13.8448 37.583 21.4387 37.583Z" fill="white" fill-opacity="0.3"/>
</svg>
